<?xml version="1.0" encoding="UTF-8"?>
<svg width="752pt" height="752pt" version="1.1" viewBox="0 0 752 752" xmlns="http://www.w3.org/2000/svg">
 <path d="m541.75 312.07c-18.469 0-33.152 14.68-33.152 33.152 0 8.9961 3.3164 16.574 8.9961 22.73l-78.141 37.887-52.094-122.66c17.051-5.6836 29.363-21.785 29.363-40.254 0-23.68-18.941-42.621-42.621-42.621-23.68 0-42.621 18.941-42.621 42.621 0 18.469 12.312 34.57 28.887 40.254l-56.355 123.13-71.039-36.465c6.6289-6.1562 10.418-14.68 10.418-24.152 0-18.469-14.68-33.152-33.152-33.152-18.469 0-33.152 14.68-33.152 33.152 0 16.102 11.367 29.363 26.992 32.676l21.785 166.23c0.47266 4.7344 4.7344 8.0508 9.4727 8.0508h278c4.7344 0 8.9961-3.3164 9.4727-8.0508l21.785-165.75c17.051-1.4219 30.781-15.629 30.781-33.152-0.47266-18.941-15.156-33.625-33.625-33.625zm-191.32-69.613c0-13.262 10.418-23.68 23.68-23.68s23.68 10.418 23.68 23.68c0 12.785-10.418 23.207-23.207 23.68h-0.47266-0.47266c-12.789-0.47656-23.207-10.895-23.207-23.68zm-140.18 116.97c-8.0508 0-14.207-6.1562-14.207-14.207s6.1562-14.207 14.207-14.207 14.207 6.1562 14.207 14.207-6.1562 14.207-14.207 14.207zm294.57 173.8h-261.42l-5.2109-39.309h271.84zm7.5781-58.25h-276.57l-11.367-88.559 80.035 40.727c2.3672 0.94531 4.7344 1.4219 7.5781 0.47266 2.3672-0.94531 4.2617-2.8398 5.6836-5.2109l56.828-123.61 52.566 123.61c0.94531 2.3672 2.8398 4.2617 5.2109 5.2109 2.3672 0.94531 5.2109 0.94531 7.5781-0.47266l85.246-41.203zm29.359-115.55c-8.0508 0-14.207-6.1562-14.207-14.207s6.1562-14.207 14.207-14.207c8.0508 0 14.207 6.1562 14.207 14.207s-6.1562 14.207-14.207 14.207z"/>
</svg>
