<?xml version="1.0" encoding="UTF-8"?>
<svg width="752pt" height="752pt" version="1.1" viewBox="0 0 752 752" xmlns="http://www.w3.org/2000/svg">
 <g>
  <path d="m313.03 458.66c2.1406 7.8516 2.9141 16.012 2.293 24.121 18.105 7.2031 37.504 10.578 56.977 9.918v-31.598l-50.688-47.359 0.59375-1.1836h-24.938c0.82812 15.867 5.9453 31.211 14.797 44.398z"/>
  <path d="m366.61 500.32c-17.887-0.125-35.594-3.5391-52.242-10.062-0.31641 2.043-0.73438 4.0664-1.2578 6.0664l-1.8516 7.3984-7.3984-1.9961c-14.016-3.9453-28.508-5.9141-43.066-5.8477-5.5352 30.742-3.6055 62.363 5.6211 92.203 35.594-27.086 91.238-25.234 105.89-24.125v-63.785z"/>
  <path d="m439.79 456.8c8.8555-13.188 13.969-28.531 14.801-44.398h-24.789l0.59375 1.1836-50.688 47.508v31.672c19.477 0.61719 38.871-2.7852 56.977-9.9922-0.625-8.0859 0.14844-16.223 2.293-24.047z"/>
  <path d="m448.07 501.8-7.3984 1.9961-1.8516-7.3984c-0.52344-1.9727-0.94531-3.9766-1.2578-5.9922-18.457 7.1289-38.164 10.453-57.938 9.7656v63.785c14.801-1.1094 70.371-3.1094 105.82 24.051h-0.003906c9.2305-29.84 11.16-61.461 5.625-92.203-14.539-0.007812-29.008 2.0117-42.992 5.9961z"/>
  <path d="m303.78 308.22c0.96484 2.4297 2.207 4.7383 3.6992 6.8828 3.2109 4.7031 7.3711 8.6875 12.211 11.691v-51.059c-4.5508 0.007813-9.0977-0.23828-13.617-0.73828-0.63672-0.11328-1.2891-0.11328-1.9258 0-2.9531 0.52344-5.0117 3.2266-4.7344 6.2148l1.332 14.801c0.32812 4.207 1.3555 8.3359 3.0352 12.207z"/>
  <path d="m337.6 333.82v-59.199c-3.4844 0.46094-6.9922 0.73438-10.508 0.81641v54.906-0.003906c1.1602 0.48438 2.3438 0.90625 3.5508 1.2578z"/>
  <path d="m345 273.74v62.23l19.535 5.6992v-74c-6.2695 2.7344-12.82 4.7656-19.535 6.0703z"/>
  <path d="m382.44 343.81v-79.547c-1.7773-0.96094-3.5508-1.9961-5.2539-3.1094-1.7031 1.1094-3.4766 2.1445-5.2539 3.1094v79.547l5.2539 1.5547z"/>
  <path d="m389.84 267.82v73.996l19.535-5.6992v-62.375c-6.7109-1.2539-13.262-3.2422-19.535-5.9219z"/>
  <path d="m427.28 275.66c-3.5156-0.082031-7.0234-0.35156-10.508-0.8125v59.199l6.957-1.9961v-0.003906c1.207-0.35156 2.3906-0.77344 3.5508-1.2578z"/>
  <path d="m450 275.22c-0.63672-0.11328-1.2891-0.11328-1.9258 0-4.5195 0.49609-9.0664 0.74609-13.613 0.73828v51.059c4.8359-3.0039 8.9961-6.9883 12.207-11.691 1.4922-2.1445 2.7344-4.4531 3.6992-6.8828 1.6484-3.7812 2.6758-7.8047 3.0352-11.914l1.332-14.801v0.003907c0.44531-3.0977-1.6523-5.9844-4.7344-6.5117z"/>
  <path d="m387.84 205.14-0.51953-4.1445 0.003907 0.003906c-0.44141-3.5156-2.6875-6.5469-5.9219-7.9922 0 0 38.184-20.055 61.195 10.875 11.617 15.91 48.395 8.1406 48.395 8.1406-23.383-12.211-14.281-20.055-14.281-20.055 16.281-7.3984 16.281-27.973 16.281-27.973l-26.566 14.285c-16.426 8.2148-47.652-12.062-47.652-12.062-29.598-11.543-45.137 26.418-45.137 26.418h-0.003907c-3.6562 1.293-6.2812 4.5195-6.8086 8.3633l-0.51953 4.2188 0.003906-0.003906c3.6016-0.50781 7.2383-0.75391 10.875-0.73828 3.5625-0.003906 7.125 0.21875 10.656 0.66406z"/>
  <path d="m373.19 254.94 3.9961-2.5156 3.9961 2.5156h-0.003906c20.102 11.703 43.598 16.195 66.598 12.727h1.332c-2.9727-13.363-9.8477-25.547-19.758-35-11.168-10.738-25.43-17.703-40.77-19.902-3.7031-0.53516-7.4375-0.80859-11.176-0.81641-3.7148-0.003907-7.4297 0.29297-11.098 0.89062-14.48 1.9141-28.035 8.1836-38.871 17.973-10.836 9.793-18.441 22.645-21.809 36.855h1.4062c22.855 3.3633 46.18-1.1211 66.156-12.727z"/>
  <path d="m334.27 353.8 31.078 11.543 0.003906 0.003906c7.6406 2.8125 16.035 2.8125 23.676 0l31.375-11.547c11.609-4.1523 20.699-13.355 24.715-25.008-5.6133 4.7695-12.207 8.2539-19.312 10.211l-48.617 14.207-48.613-14.207c-7.0742-2.043-13.613-5.6016-19.168-10.434 3.9922 11.77 13.152 21.066 24.863 25.23z"/>
  <path d="m303.78 345.07c0.11719 9.0391 3.0234 17.82 8.3203 25.145 5.3008 7.3242 12.73 12.836 21.277 15.777l8.7305 3.2578 22.199 8.2891v-0.003906c8.4805 3.1055 17.789 3.1055 26.27 0l20.273-7.3984 10.73-3.9961c8.4805-3.0039 15.832-8.5391 21.059-15.859 5.2305-7.3203 8.082-16.07 8.1719-25.062v-11.102c-5.2227 12.336-15.324 21.953-27.898 26.566l-31.078 11.469c-9.2891 3.5547-19.566 3.5547-28.859 0l-31.375-11.617c-12.574-4.6133-22.672-14.23-27.895-26.562z"/>
  <path d="m376 454.44 44.844-41.883 0.51953-0.51953-7.3984-15.391-20.941 7.8438-0.003907 0.003907c-10.164 3.6484-21.281 3.6484-31.449 0l-23.012-8.582-7.8438 16.133 0.51953 0.51953z"/>
  <path d="m462.13 406.34v6.957c-1.0977 16.91-6.6641 33.227-16.129 47.281-2.0586 7.5898-2.6836 15.492-1.8516 23.312 0 1.2578 0 2.5156 0.44531 3.7734 0.44531 1.2578 0.8125 4.5156 1.4062 6.8086v-0.003906c14.219-3.9531 28.898-6.0195 43.656-6.1406 15.012-0.019531 29.957 2.0469 44.398 6.1406v-15.98c0-19.098-7.5703-37.414-21.051-50.938-13.484-13.523-31.777-21.152-50.875-21.211z"/>
  <path d="m305.93 494.4c0.59375-2.293 1.0352-4.5859 1.4062-6.8086-0.042969-0.64062-0.042969-1.2852 0-1.9258v-0.66406c1.0078-8.2031 0.40625-16.523-1.7773-24.492-9.3867-14.152-14.828-30.551-15.762-47.508v-6.7344c-19.133 0-37.484 7.6016-51.016 21.133-13.527 13.531-21.129 31.879-21.129 51.016v15.984c14.441-4.0938 29.387-6.1641 44.398-6.1445 14.832 0.10156 29.59 2.168 43.879 6.1445z"/>
 </g>
</svg>
