<?xml version="1.0" encoding="UTF-8"?>
<svg width="752pt" height="752pt" version="1.1" viewBox="0 0 752 752" xmlns="http://www.w3.org/2000/svg">
 <path d="m544.19 187.12c-4.543-0.85938-8.9258 0.46875-12.094 3.6602-5.5078 5.5391-8.5508 14.422-12.078 24.699-5.0586 14.746-11.41 32.883-27.215 46.637-6.668-4.207-15.18-4.4961-22.066-0.58203-14.387-13.293-34.555-23.664-57.227-29.254-0.03125-0.007812-0.0625 0.003906-0.09375-0.003906v-16.836c0-2.6172-2.1172-4.7344-4.7344-4.7344l-65.352-0.003906c-2.6172 0-4.7344 2.1172-4.7344 4.7344v17.027c-20.832 5.4023-40.512 15.418-57.215 29.141-7.0156-3.9648-15.523-3.6875-22.172 0.51172-15.805-13.754-22.156-31.887-27.215-46.633-3.5273-10.281-6.5703-19.16-12.074-24.695-3.168-3.1914-7.5469-4.5156-12.098-3.6641-4.6953 0.90234-8.6133 4.043-10.477 8.4062-9.4531 22.168-26.453 79.535 17.227 136.98-2.0391 8.7305 1.332 17.879 8.8203 22.98 0.066406 0.042968 0.12891 0.082031 0.19531 0.125l4.582 2.8008c-0.76172 6.1289-1.2109 12.348-1.2109 18.566v41.172c-12.055 1.0625-21.574 11.102-21.574 23.43v5.5781c0 13.031 10.605 23.633 23.637 23.633h109.57v53.266c0 1.1602 0.42578 2.2852 1.2031 3.1523l32.676 36.641c0.89453 0.99609 2.1797 1.5742 3.5273 1.5742 1.3516 0 2.6367-0.57812 3.5352-1.582l32.676-36.641c0.77734-0.87109 1.2031-1.9922 1.2031-3.1523l-0.003906-53.266h109.57c13.031 0 23.637-10.602 23.637-23.633v-5.5781c0-12.328-9.5195-22.363-21.574-23.43v-41.172c0-6.1328-0.37891-12.316-1.125-18.379-0.007813-0.074218-0.054687-0.12891-0.066406-0.19922l4.5625-2.7852c0.066406-0.042969 0.12891-0.082032 0.19531-0.125 7.4844-5.0977 10.859-14.25 8.8203-22.98 43.68-57.449 26.684-114.82 17.227-136.98-1.8633-4.3672-5.7773-7.5078-10.473-8.4062zm-338.13 12.125c0.625-1.4609 1.9453-2.5156 3.5469-2.8242 0.80859-0.14844 2.3398-0.22656 3.5938 1.0352 3.9688 3.9961 6.6875 11.918 9.8359 21.098 5.3516 15.602 11.941 34.793 29.047 50.051-10.379 11.234-23.324 28.684-33.562 53.25-36.117-51.832-20.992-102.61-12.461-122.61zm18.129 133.9c11.031-30.043 26.676-49.926 37.863-61.32 4.0781-4.1719 10.586-4.8359 15.668-1.4531l13.094 7.8594c-9.168 9.5195-30.328 34.438-48.547 77.695l-13.633-8.3281c-4.582-3.1797-6.4102-9.1016-4.4453-14.453zm17.875 33.762c0.75391 0.45703 1.6094 0.69531 2.4688 0.69531 0.5 0 1.0039-0.078124 1.4883-0.24219 1.3242-0.4375 2.3867-1.4375 2.9062-2.7305 22.961-57.129 52.418-83.484 52.711-83.742 1.1328-1 1.7266-2.4844 1.5859-3.9883-0.13281-1.5078-0.98047-2.8594-2.2773-3.6367l-10.844-6.5039c14.395-11.238 30.977-19.605 48.492-24.488v175.67l-102.16 0.003906v-40.961c0-4.3789 0.28125-8.7539 0.68359-13.102zm-13.043 94.414c-7.8125 0-14.164-6.3555-14.164-14.16v-5.5781c0-7.8125 6.3555-14.164 14.164-14.164h109.57v33.906zm174.93 60.93-27.941 31.332-27.938-31.328v-302.08h55.879zm133.21-80.668v5.5781c0 7.8086-6.3555 14.16-14.164 14.16h-109.58v-33.906h109.57c7.8125 0 14.168 6.3555 14.168 14.168zm-21.574-64.602v40.961l-102.17 0.003906v-175.87c19.148 5.0391 36.191 13.617 48.777 24.512l-11.133 6.6797c-1.2969 0.77734-2.1406 2.1289-2.2773 3.6367-0.14062 1.5039 0.45312 2.9883 1.5859 3.9883 0.29688 0.25781 29.75 26.609 52.715 83.742 0.51953 1.2891 1.582 2.2891 2.9062 2.7305 0.48438 0.16016 0.98828 0.24219 1.4883 0.24219 0.85938 0 1.7148-0.23438 2.4688-0.69531l4.9609-3.0312c0.40625 4.3477 0.67578 8.7305 0.67578 13.102zm7.7969-29.383-13.633 8.3281c-18.223-43.266-39.387-68.184-48.547-77.695l13.281-7.9766c4.8828-3.25 11.391-2.5938 15.48 1.5742 11.188 11.395 26.832 31.277 37.863 61.32 1.9648 5.3477 0.13281 11.27-4.4453 14.449zm10.109-25.742c-10.238-24.566-23.18-42.016-33.562-53.25 17.105-15.258 23.695-34.449 29.047-50.051 3.1484-9.1797 5.8672-17.102 9.8398-21.102 1.2422-1.25 2.7852-1.1719 3.5898-1.0312 1.6016 0.30859 2.9219 1.3633 3.5469 2.8242 8.5312 19.996 23.66 70.777-12.461 122.61z"/>
</svg>
